<?xml version="1.0" standalone="no"?>
<!DOCTYPE svg PUBLIC "-//W3C//DTD SVG 20010904//EN"
 "http://www.w3.org/TR/2001/REC-SVG-20010904/DTD/svg10.dtd">
<svg version="1.0" xmlns="http://www.w3.org/2000/svg"
 width="400.000000pt" height="400.000000pt" viewBox="0 0 400.000000 400.000000"
 preserveAspectRatio="xMidYMid meet">
<metadata>
Created by potrace 1.16, written by Peter Selinger 2001-2019
</metadata>
<g transform="translate(0.000000,400.000000) scale(0.100000,-0.100000)"
fill="#000000" stroke="none">
<path d="M0 2000 l0 -2000 2000 0 2000 0 0 2000 0 2000 -2000 0 -2000 0 0
-2000z m960 -1011 l0 -39 -60 0 -60 0 0 -166 0 -165 -47 3 -48 3 -3 163 -2
162 -60 0 -60 0 0 40 0 40 163 2 c89 2 165 2 170 0 4 -2 7 -21 7 -43z m470
-165 l0 -204 -45 0 c-25 0 -45 4 -45 9 0 6 -12 3 -27 -5 -119 -61 -233 85
-174 223 33 74 104 103 171 68 l30 -16 0 65 0 65 38 3 c20 2 40 2 45 0 4 -2 7
-95 7 -208z m340 0 l0 -204 -45 0 c-25 0 -45 4 -45 9 0 6 -12 3 -27 -5 -89
-45 -183 30 -183 146 0 65 23 114 65 140 38 24 79 26 118 6 l27 -15 0 63 c0
34 2 65 4 67 3 3 23 3 45 1 l41 -4 0 -204z m150 0 l0 -205 -47 3 -48 3 -3 202
-2 202 42 3 c24 2 46 2 51 0 4 -2 7 -95 7 -208z m418 169 c5 -21 18 -75 28
-121 10 -50 20 -78 25 -70 4 6 20 61 35 120 l26 108 49 0 48 0 27 -120 c15
-65 31 -117 35 -115 4 3 19 57 34 120 l27 115 49 0 c43 0 50 -2 45 -17 -3 -10
-17 -63 -31 -118 -15 -55 -33 -120 -40 -145 -8 -25 -19 -64 -25 -87 l-11 -43
-48 0 -49 0 -27 113 c-15 61 -30 116 -34 120 -7 7 -19 -34 -35 -118 -2 -11
-10 -42 -16 -68 l-13 -48 -50 3 c-44 3 -51 6 -58 28 -4 14 -26 97 -49 185 -23
88 -44 168 -46 178 -5 14 2 17 44 17 48 0 49 -1 60 -37z m692 -65 l0 -102 48
47 c45 44 51 47 102 47 l54 0 -42 -43 c-23 -24 -40 -46 -37 -50 3 -4 2 -5 -2
-2 -3 3 -12 0 -19 -6 -10 -8 -10 -16 4 -38 39 -62 106 -151 113 -151 5 0 9 65
9 145 l0 145 45 0 45 0 0 -150 0 -150 -107 0 -108 0 -38 61 c-31 51 -40 59
-52 49 -10 -8 -15 -30 -15 -61 l0 -49 -45 0 -45 0 0 205 0 205 45 0 45 0 0
-102z m-1950 -159 l0 -149 -45 0 -45 0 0 148 c0 82 2 151 4 153 3 3 23 3 45 1
l41 -4 0 -149z m979 59 c16 -51 32 -86 35 -78 29 83 44 130 40 130 -3 0 0 9 6
20 8 15 21 20 55 20 25 0 45 -3 45 -6 0 -4 -25 -74 -55 -156 -31 -82 -53 -154
-49 -160 4 -7 3 -8 -4 -4 -7 4 -12 1 -12 -9 0 -9 -11 -27 -25 -40 -20 -21 -34
-25 -80 -25 l-56 0 3 38 c3 34 6 37 36 40 18 2 35 9 38 15 4 11 -73 234 -96
276 -13 25 -4 31 46 31 l43 0 30 -92z m821 -58 l0 -150 -45 0 -45 0 0 150 0
150 45 0 45 0 0 -150z"/>
<path d="M1248 849 c-10 -5 -23 -19 -29 -31 -8 -15 -8 -19 0 -14 8 5 8 1 0
-17 -16 -35 11 -94 47 -103 61 -16 99 91 53 150 -22 27 -43 32 -71 15z"/>
<path d="M1579 839 c-16 -16 -19 -30 -17 -72 2 -40 6 -51 18 -49 8 2 12 0 8
-4 -11 -11 12 -34 33 -34 36 0 59 36 59 90 0 79 -54 116 -101 69z"/>
</g>
</svg>
